<svg xmlns="http://www.w3.org/2000/svg" xmlns:xlink="http://www.w3.org/1999/xlink" width="36" height="36"><defs><path id="a" d="M622 1800a3 3 0 0 1 3-3h30a3 3 0 0 1 3 3v30a3 3 0 0 1-3 3h-30a3 3 0 0 1-3-3z"/><path id="b" d="M644.53 1817.32a.85.85 0 0 1 1.22 0 .9.9 0 0 1 0 1.24l-5.12 5.18a.87.87 0 0 1-1.25 0l-5.12-5.18a.87.87 0 0 1 0-1.24.85.85 0 0 1 1.22 0l3.66 3.71v-13.16c0-.49.39-.87.86-.87.48 0 .86.38.86.87v13.16z"/></defs><use fill="#4d80ba" xlink:href="#a" transform="translate(-622 -1797)"/><use fill="#fff" xlink:href="#b" transform="translate(-622 -1797)"/></svg>