<svg xmlns="http://www.w3.org/2000/svg" xmlns:xlink="http://www.w3.org/1999/xlink" width="24" height="24" viewBox="0 0 24 24"><defs><path id="itl3a" d="M570.33 796.33h-.66v-.66a.67.67 0 1 0-1.34 0v.66h-.66a.67.67 0 1 0 0 1.34h.66v.66a.67.67 0 1 0 1.34 0v-.66h.66a.67.67 0 1 0 0-1.34z"/><path id="itl3b" d="M570.33 815.32h-.66v-.66c0-.37-.3-.66-.67-.66-.37 0-.67.3-.67.66v.66h-.66c-.37 0-.67.3-.67.66 0 .36.3.66.67.66h.66v.7c0 .37.3.66.67.66.37 0 .67-.3.67-.66v-.7h.66c.37 0 .67-.3.67-.66 0-.37-.3-.66-.67-.66z"/><path id="itl3c" d="M550.33 813.33h-.66v-.66a.67.67 0 1 0-1.34 0v.66h-.66a.67.67 0 1 0 0 1.34h.66v.66a.67.67 0 1 0 1.34 0v-.66h.66a.67.67 0 1 0 0-1.34z"/><path id="itl3d" d="M557.39 798.51l-.5.49a.7.7 0 0 1-.97 0l-4.2-4.22a2.82 2.82 0 0 0-3.91 0 2.77 2.77 0 0 0 0 3.92l4.2 4.21a.7.7 0 0 1 0 .98l-.48.49a3.46 3.46 0 0 0-.22 4.62L562 798.3a3.44 3.44 0 0 0-4.61.21z"/><path id="itl3e" d="M564.79 800.53l-1.54-1.53L552 810.25l1.53 1.54a.72.72 0 0 0 1.03 0l10.23-10.23a.72.72 0 0 0 0-1.03z"/><path id="itl3f" d="M568.2 803.09a.67.67 0 0 0-.78.08c-.22.2-.3.5-.2.78.1.25.05.55-.14.74a.69.69 0 0 1-.97 0l-1.44-1.48-1.93 1.97 1.84 1.9a.7.7 0 0 1 0 .98.67.67 0 0 1-.96 0l-1.84-1.89-.97.99 1.85 1.89a.7.7 0 0 1 0 .98.67.67 0 0 1-.96 0l-1.85-1.89-.96.99 1.84 1.89a.7.7 0 0 1 0 .98.67.67 0 0 1-.96 0l-1.84-1.88-1.93 1.97 1.44 1.48a4.68 4.68 0 0 0 6.75 0l4.81-4.93a3.54 3.54 0 0 0-.8-5.55z"/></defs><g><g transform="translate(-547 -794)"><g><use fill="#fff" xlink:href="#itl3a"/></g><g><use fill="#fff" xlink:href="#itl3b"/></g><g><use fill="#fff" xlink:href="#itl3c"/></g><g><use fill="#4d80ba" xlink:href="#itl3d"/></g><g><use fill="#4d80ba" xlink:href="#itl3e"/></g><g><use fill="#4d80ba" xlink:href="#itl3f"/></g></g></g></svg>