<svg xmlns="http://www.w3.org/2000/svg" xmlns:xlink="http://www.w3.org/1999/xlink" width="12" height="24"><defs><path id="a" d="M330.63 548.33a12.55 12.55 0 0 0-11.26 0 .67.67 0 0 0-.37.6v2.4c0 .37.3.67.67.67h10.66c.37 0 .67-.3.67-.67v-2.4a.67.67 0 0 0-.37-.6z"/><path id="b" d="M328.57 556.57l-2.28-1.48 2.28-1.49zm-7.14 0v-2.97l2.28 1.49zm5.5-3.57l-1.93 1.25-1.93-1.25H320v6.3c0 .39.32.7.71.7a.7.7 0 0 0 .72-.7v-1.06l3.57-2.32 3.57 2.32v1.06c0 .39.32.7.72.7a.7.7 0 0 0 .71-.7V553z"/><path id="c" d="M325.88 536h-1.76a5.04 5.04 0 0 0-5.08 5.58l.57 5.42c.47-.17.95-.3 1.43-.43l-.55-5.15a3.5 3.5 0 0 1 2.32-3.74v8.53c.48-.07.97-.1 1.46-.13v-8.66h1.46v8.66c.5.02.98.06 1.46.13v-8.53a3.5 3.5 0 0 1 2.32 3.75l-.55 5.14c.49.12.96.26 1.43.43l.57-5.4c.38-3-2.04-5.6-5.08-5.6z"/></defs><use fill="#4d80ba" xlink:href="#a" transform="translate(-319 -536)"/><use fill="#4d80ba" xlink:href="#b" transform="translate(-319 -536)"/><use fill="#fff" xlink:href="#c" transform="translate(-319 -536)"/></svg>