<svg xmlns="http://www.w3.org/2000/svg" xmlns:xlink="http://www.w3.org/1999/xlink" width="18" height="24" viewBox="0 0 18 24"><defs><path id="f63ja" d="M119.67 543v.67a.67.67 0 1 1-1.34 0V543H117v4h4v-4z"/><path id="f63jb" d="M122.63 548.02c0 .4-.31.7-.7.7h-5.5a.7.7 0 0 1-.68-.7v-5.63c0-.4.3-.7.69-.7h5.5a.7.7 0 0 1 .69.7zM115.06 536a2.1 2.1 0 0 0-2.06 2.11V553h11v-17z"/><path id="f63jc" d="M128.75 536H125v8.5h.75c.41 0 .75.32.75.7 0 .4-.34.7-.75.7H125v7.1h6v-14.89c0-1.16-1-2.11-2.25-2.11z"/><path id="f63jd" d="M123.38 557h-2.76c-.39 0-.7-.34-.7-.75s.31-.75.7-.75h2.76c.39 0 .7.34.7.75s-.31.75-.7.75zM113 554v5.25c0 .41.31.75.7.75h16.6c.39 0 .7-.34.7-.75V554z"/></defs><g><g transform="translate(-113 -536)"><g><use fill="#fff" xlink:href="#f63ja"/></g><g><use fill="#4d80ba" xlink:href="#f63jb"/></g><g><use fill="#4d80ba" xlink:href="#f63jc"/></g><g><use fill="#4d80ba" xlink:href="#f63jd"/></g></g></g></svg>