<svg xmlns="http://www.w3.org/2000/svg" xmlns:xlink="http://www.w3.org/1999/xlink" width="24" height="24" viewBox="0 0 24 24"><defs><path id="26jqa" d="M860 543.5a.5.5 0 1 1 1 0 .5.5 0 0 1-1 0z"/><path id="26jqb" d="M861 536a2 2 0 1 0 0 4 2 2 0 0 0 0-4z"/><path id="26jqc" d="M866 540a3 3 0 1 0 0 6 3 3 0 0 0 0-6z"/><path id="26jqd" d="M855 557.5a.5.5 0 1 1 1 0 .5.5 0 0 1-1 0z"/><path id="26jqe" d="M856 550a2 2 0 1 0 0 4 2 2 0 0 0 0-4z"/><path id="26jqf" d="M861 554a3 3 0 1 0 0 6 3 3 0 0 0 0-6z"/><path id="26jqg" d="M877 552.5a.5.5 0 1 1 1 0 .5.5 0 0 1-1 0z"/><path id="26jqh" d="M874 544a2 2 0 1 0 0 4 2 2 0 0 0 0-4z"/><path id="26jqi" d="M864 548a2 2 0 1 0 0 4 2 2 0 0 0 0-4z"/><path id="26jqj" d="M871 549a3 3 0 1 0 0 6 3 3 0 0 0 0-6z"/></defs><g><g transform="translate(-854 -536)"><g><use fill="#fff" xlink:href="#26jqa"/></g><g><use fill="#fff" xlink:href="#26jqb"/></g><g><use fill="#4d80ba" xlink:href="#26jqc"/></g><g><use fill="#fff" xlink:href="#26jqd"/></g><g><use fill="#fff" xlink:href="#26jqe"/></g><g><use fill="#4d80ba" xlink:href="#26jqf"/></g><g><use fill="#4d80ba" xlink:href="#26jqg"/></g><g><use fill="#4d80ba" xlink:href="#26jqh"/></g><g><use fill="#fff" xlink:href="#26jqi"/></g><g><use fill="#fff" xlink:href="#26jqj"/></g></g></g></svg>