<svg xmlns="http://www.w3.org/2000/svg" xmlns:xlink="http://www.w3.org/1999/xlink" width="24" height="24" viewBox="0 0 24 24"><defs><path id="47mxa" d="M461 542v-6h4v6z"/><path id="47mxb" d="M455 542v-6h4v6z"/><path id="47mxc" d="M453.26 539h.74v-3h-5.26a.75.75 0 0 0-.74.75v4.5c0 .41.33.75.74.75H454v-1.5h-.74a.75.75 0 0 1-.75-.75c0-.41.34-.75.75-.75z"/><path id="47mxd" d="M471.26 536H466v3h.74c.41 0 .75.34.75.75s-.34.75-.75.75H466v1.5h5.26c.4 0 .74-.34.74-.75v-4.5a.75.75 0 0 0-.74-.75z"/><path id="47mxe" d="M455 560v-6h4v6z"/><path id="47mxf" d="M455 549v-6h4v6z"/><path id="47mxg" d="M453.26 555.49h.74V554h-6v5.26c0 .4.33.74.74.74H454v-3.02h-.74a.74.74 0 1 1 0-1.5z"/><path id="47mxh" d="M453.26 544.49h.74V543h-6v5.26c0 .4.33.74.74.74H454v-3.02h-.74a.74.74 0 1 1 0-1.5z"/><path id="47mxi" d="M466 554v1.49h.74a.74.74 0 1 1 0 1.49H466V560h5.26c.4 0 .74-.33.74-.74V554z"/><path id="47mxj" d="M466 543v1.49h.74a.74.74 0 1 1 0 1.49H466V549h5.26c.4 0 .74-.33.74-.74V543z"/><path id="47mxk" d="M461 560v-6h4v6z"/><path id="47mxl" d="M461 549v-6h4v6z"/><path id="47mxm" d="M471.3 550h-22.6c-.39 0-.7.33-.7.74V553h24v-2.26c0-.41-.31-.74-.7-.74z"/></defs><g><g transform="translate(-448 -536)"><g><use fill="#fff" xlink:href="#47mxa"/></g><g><use fill="#4d80ba" xlink:href="#47mxb"/></g><g><use fill="#4d80ba" xlink:href="#47mxc"/></g><g><use fill="#4d80ba" xlink:href="#47mxd"/></g><g><use fill="#4d80ba" xlink:href="#47mxe"/></g><g><use fill="#fff" xlink:href="#47mxf"/></g><g><use fill="#4d80ba" xlink:href="#47mxg"/></g><g><use fill="#4d80ba" xlink:href="#47mxh"/></g><g><use fill="#4d80ba" xlink:href="#47mxi"/></g><g><use fill="#4d80ba" xlink:href="#47mxj"/></g><g><use fill="#fff" xlink:href="#47mxk"/></g><g><use fill="#4d80ba" xlink:href="#47mxl"/></g><g><use fill="#fff" xlink:href="#47mxm"/></g></g></g></svg>