<svg xmlns="http://www.w3.org/2000/svg" xmlns:xlink="http://www.w3.org/1999/xlink" width="113.51" height="23.43" viewBox="0 0 113.51 23.43"><defs><path id="vaqca" d="M122.4 24.41v.48h-2.5v-.48c0-.08-.04-.13-.13-.13h-5.98c-.08 0-.13.05-.13.13v1.53c0 .08.05.12.13.12h5.98c.74 0 1.36.25 1.87.77.5.51.76 1.13.76 1.86v1.53c0 .72-.25 1.34-.76 1.86-.5.51-1.13.77-1.87.77h-5.98c-.72 0-1.34-.26-1.86-.77a2.54 2.54 0 0 1-.77-1.86v-.48h2.5v.48c0 .09.05.13.13.13h5.98c.09 0 .13-.04.13-.13v-1.53c0-.08-.04-.11-.13-.11h-5.98c-.72 0-1.34-.26-1.86-.78a2.54 2.54 0 0 1-.77-1.86v-1.53c0-.72.26-1.34.77-1.86a2.53 2.53 0 0 1 1.86-.77h5.98c.74 0 1.36.26 1.87.77.5.52.76 1.14.76 1.86"/><path id="vaqcb" d="M132.7 21.79c.73 0 1.35.26 1.87.77.51.52.77 1.14.77 1.86v4.17h-8.74v1.64c0 .09.04.13.13.13h8.61v2.5h-8.6c-.73 0-1.35-.26-1.87-.77a2.53 2.53 0 0 1-.77-1.86v-5.8c0-.73.26-1.35.77-1.87a2.54 2.54 0 0 1 1.86-.77zm-6.1 4.28h6.24v-1.65c0-.08-.04-.13-.13-.13h-5.98c-.09 0-.13.05-.13.13z"/><path id="vaqcc" d="M145.97 21.78c.72 0 1.34.26 1.86.77.51.52.77 1.14.77 1.87v8.43h-2.5v-8.44c0-.08-.04-.13-.13-.13h-5.98c-.09 0-.13.05-.13.13v8.44h-2.5V21.78z"/><path id="vaqcd" d="M150.65 24.28v-2.5h11.24v2.73l-7.55 5.84h7.55v2.5h-11.24v-2.73l7.56-5.84z"/><path id="vaqce" d="M163.94 24.28v-2.5h11.24v2.73l-7.56 5.84h7.56v2.5h-11.24v-2.73l7.56-5.84z"/><path id="vaqcf" d="M185.98 21.78h2.5v8.44c0 .72-.25 1.34-.77 1.86-.51.51-1.13.77-1.86.77h-5.97c-.74 0-1.37-.26-1.88-.77a2.55 2.55 0 0 1-.76-1.86v-8.44h2.5v8.44c0 .09.04.13.14.13h5.97c.09 0 .13-.04.13-.13z"/><path id="vaqcg" d="M193.13 21.78h6.14v2.5h-6.15c-.09 0-.13.05-.13.14v8.43h-2.5v-8.44c0-.72.26-1.34.77-1.86a2.53 2.53 0 0 1 1.87-.77"/><path id="vaqch" d="M93.14 30.43c0 .69.38 1.25 1.25 1.25.18 0 .46-.1.46-.1h.03l2.78-.9-2.7-.73-.4-4.98s-1.4 5.17-1.42 5.29z"/><path id="vaqci" d="M103.07 24.65l-.06-.8-8.59-3-3.82 1.33v-2.93h-.01v-1.82c0-.02 0-.03.02-.05v-.02c0-.02 0-.04.03-.04 0-.02.03-.03.05-.02.02-.02.03-.02.05-.02h7.38v.01c.06-.01.09 0 .1.03.04.02.05.06.05.11v2.46l2.7.94v-3.4c0-.79-.27-1.46-.83-2.02a2.75 2.75 0 0 0-2.02-.84h-7.38c-.8 0-1.46.28-2.02.84a2.74 2.74 0 0 0-.84 2.02v5.7l-2.04.71-.07.81c0 .1-.68 9.7 8.2 13.18l.45.17.46-.17c8.88-3.47 8.2-13.08 8.2-13.18m-8.66 10.66c-5.43-2.39-6.11-7.65-6.17-9.66l6.17-2.16 6.17 2.16c-.05 2.01-.73 7.27-6.17 9.66"/></defs><g><g transform="translate(-85.76 -14.57)"><g><use fill="#fff" xlink:href="#vaqca"/></g><g><use fill="#fff" xlink:href="#vaqcb"/></g><g><use fill="#fff" xlink:href="#vaqcc"/></g><g><use fill="#fff" xlink:href="#vaqcd"/></g><g><use fill="#fff" xlink:href="#vaqce"/></g><g><use fill="#fff" xlink:href="#vaqcf"/></g><g><use fill="#fff" xlink:href="#vaqcg"/></g><g><g><use fill="#fff" xlink:href="#vaqch"/></g><g><use fill="#cd9f43" xlink:href="#vaqci"/></g></g></g></g></svg>