<svg width="123" height="100" xmlns="http://www.w3.org/2000/svg"><defs><linearGradient x1="0%" y1="0%" x2="99.488%" y2="99.488%" id="a"><stop stop-color="#4D80BA" offset="0%"/><stop stop-color="#7DE1FF" stop-opacity="0" offset="100%"/></linearGradient></defs><g fill="none" fill-rule="evenodd" opacity=".9"><path d="M26.75 43.5L43.5 72H10l16.75-28.5zm33.5 0L77 72H43.5l16.75-28.5zM43.5 15l16.75 28.5h-33.5L43.5 15z" stroke="#666" stroke-width="4" fill="#FFF"/><path d="M44 18.901c-4.64 0-8.4-3.783-8.4-8.45S39.36 2 44 2c4.64 0 8.4 3.784 8.4 8.45 0 4.668-3.76 8.451-8.4 8.451zM27.2 48.48c-4.64 0-8.4-3.784-8.4-8.45 0-4.668 3.76-8.452 8.4-8.452 4.64 0 8.4 3.784 8.4 8.451 0 4.667-3.76 8.45-8.4 8.45zm33.6 0c-4.64 0-8.4-3.784-8.4-8.45 0-4.668 3.76-8.452 8.4-8.452 4.64 0 8.4 3.784 8.4 8.451 0 4.667-3.76 8.45-8.4 8.45zM10.4 77C5.76 77 2 73.216 2 68.55c0-4.668 3.76-8.451 8.4-8.451 4.64 0 8.4 3.783 8.4 8.45S15.04 77 10.4 77zM44 77c-4.64 0-8.4-3.784-8.4-8.45 0-4.668 3.76-8.451 8.4-8.451 4.64 0 8.4 3.783 8.4 8.45S48.64 77 44 77zm33.6 0c-4.64 0-8.4-3.784-8.4-8.45 0-4.668 3.76-8.451 8.4-8.451 4.64 0 8.4 3.783 8.4 8.45S82.24 77 77.6 77z" stroke="#666" stroke-width="4" fill="#FFF"/><path d="M31.478 67a3.14 3.14 0 0 1-3.13-3.15 3.14 3.14 0 0 1 3.13-3.15 3.14 3.14 0 0 1 3.13 3.15 3.14 3.14 0 0 1-3.13 3.15zm-8.348 0A3.14 3.14 0 0 1 20 63.85a3.14 3.14 0 0 1 3.13-3.15 3.14 3.14 0 0 1 3.13 3.15A3.14 3.14 0 0 1 23.13 67zm4.174-7.35a3.14 3.14 0 0 1-3.13-3.15 3.14 3.14 0 0 1 3.13-3.15 3.14 3.14 0 0 1 3.13 3.15 3.14 3.14 0 0 1-3.13 3.15zM64.87 67a3.14 3.14 0 0 1-3.13-3.15 3.14 3.14 0 0 1 3.13-3.15A3.14 3.14 0 0 1 68 63.85 3.14 3.14 0 0 1 64.87 67zm-8.348 0a3.14 3.14 0 0 1-3.13-3.15 3.14 3.14 0 0 1 3.13-3.15 3.14 3.14 0 0 1 3.13 3.15 3.14 3.14 0 0 1-3.13 3.15zm4.174-7.35a3.14 3.14 0 0 1-3.13-3.15 3.14 3.14 0 0 1 3.13-3.15 3.14 3.14 0 0 1 3.13 3.15 3.14 3.14 0 0 1-3.13 3.15zm-12.522-21a3.14 3.14 0 0 1-3.13-3.15 3.14 3.14 0 0 1 3.13-3.15 3.14 3.14 0 0 1 3.13 3.15 3.14 3.14 0 0 1-3.13 3.15zm-8.348 0a3.14 3.14 0 0 1-3.13-3.15 3.14 3.14 0 0 1 3.13-3.15 3.14 3.14 0 0 1 3.13 3.15 3.14 3.14 0 0 1-3.13 3.15zM44 31.3a3.14 3.14 0 0 1-3.13-3.15A3.14 3.14 0 0 1 44 25a3.14 3.14 0 0 1 3.13 3.15A3.14 3.14 0 0 1 44 31.3z" fill="#666"/><path fill="url(#a)" d="M89.5 43L121 98H58z" transform="translate(2 2)"/></g></svg>