<svg xmlns="http://www.w3.org/2000/svg" xmlns:xlink="http://www.w3.org/1999/xlink" width="20" height="24" viewBox="0 0 20 24"><defs><path id="6lkya" d="M595.07 538.07a.78.78 0 0 0-.69.02.67.67 0 0 0-.36.54c0 .06-.05.56.01 1.74.7.06 1.42.16 2.17.3.24-.67.51-.98.8-1.56a22.99 22.99 0 0 0-1.93-1.04z"/><path id="6lkyb" d="M607.27 557.17h-2.02l1.28-7.32a.7.7 0 0 0-.15-.6.74.74 0 0 0-.56-.25h-11.64c-.22 0-.42.1-.56.26a.7.7 0 0 0-.15.59l1.28 7.32h-2.02a.7.7 0 0 0-.65 1.02l.52 1.03c.25.48.75.78 1.3.78h12.2c.55 0 1.05-.3 1.3-.78l.52-1.03a.7.7 0 0 0-.65-1.02z"/><path id="6lkyc" d="M605.97 538.63a.67.67 0 0 0-.36-.54.79.79 0 0 0-.7-.02c-.04.02-1.34.27-2.41.9.29.59.5 1.1.74 1.77.75-.14 1.93-.26 2.61-.32.06-1.18.12-1.73.12-1.79z"/><path id="6lkyd" d="M600.24 536.3a.67.67 0 0 0-1.1 0c-.07.1-1.35 2.15-2.14 4.6.75.24 1.48.54 2.14.94 2.32 1.4 3.35 2.88 3.74 4.16.07-.5.12-1.04.12-1.68 0-3.62-2.65-7.85-2.76-8.03z"/><path id="6lkye" d="M598.4 542.54c-3.25-1.82-8.5-1.53-8.72-1.52a.73.73 0 0 0-.58.35.68.68 0 0 0-.02.66c.09.18 2.04 3.92 4.83 5.97h7.87c.41-1 .68-3.2-3.38-5.46z"/><path id="6lkyf" d="M608.91 541.37a.67.67 0 0 0-.54-.35c-.12 0-2.47-.14-4.9.36.17.8.29 1.62.29 2.43 0 1.85-.31 3.2-.76 4.19h1.46c2.58-2.05 4.39-5.8 4.47-5.97.1-.2.1-.46-.02-.66z"/></defs><g><g transform="translate(-589 -536)"><g><use fill="#fff" xlink:href="#6lkya"/></g><g><use fill="#4d80ba" xlink:href="#6lkyb"/></g><g><use fill="#fff" xlink:href="#6lkyc"/></g><g><use fill="#4d80ba" xlink:href="#6lkyd"/></g><g><use fill="#fff" xlink:href="#6lkye"/></g><g><use fill="#4d80ba" xlink:href="#6lkyf"/></g></g></g></svg>