<svg width="112" height="93" xmlns="http://www.w3.org/2000/svg" xmlns:xlink="http://www.w3.org/1999/xlink"><defs><rect id="a" x="58" width="20" height="30" rx="5"/><rect id="b" x="42" width="20" height="30" rx="5"/><rect id="c" x="26" width="20" height="30" rx="5"/><path d="M0 5.004A5.002 5.002 0 0 1 5 0h22c2.761 0 5 2.23 5 5.004v19.992A5.002 5.002 0 0 1 27 30H5c-2.761 0-5-2.23-5-5.004V5.004z" id="d"/><rect id="e" x="60" width="20" height="30" rx="5"/><rect id="f" x="44" width="20" height="30" rx="5"/><rect id="g" x="28" width="20" height="30" rx="5"/><path d="M0 5.004A5.002 5.002 0 0 1 5 0h22c2.761 0 5 2.23 5 5.004v19.992A5.002 5.002 0 0 1 27 30H5c-2.761 0-5-2.23-5-5.004V5.004z" id="h"/><rect id="i" x="60" width="20" height="30" rx="5"/><rect id="j" x="44" width="20" height="30" rx="5"/><rect id="k" x="28" width="20" height="30" rx="5"/><linearGradient x1="0%" y1="0%" x2="99.488%" y2="99.488%" id="l"><stop stop-color="#4D80BA" offset="0%"/><stop stop-color="#7DE1FF" stop-opacity="0" offset="100%"/></linearGradient></defs><g fill="none" fill-rule="evenodd" opacity=".9"><g transform="translate(3 50)"><rect stroke="#666" stroke-width="4" x="2" y="2" width="74" height="26" rx="5"/><use fill="#FFF" xlink:href="#a"/><rect stroke="#666" stroke-width="4" x="60" y="2" width="16" height="26" rx="5"/><use fill="#FFF" xlink:href="#b"/><rect stroke="#666" stroke-width="4" x="44" y="2" width="16" height="26" rx="5"/><use fill="#FFF" xlink:href="#c"/><rect stroke="#666" stroke-width="4" x="28" y="2" width="16" height="26" rx="5"/><circle stroke="#666" stroke-width="4" fill="#FFF" cx="12" cy="15" r="4"/></g><g transform="rotate(-45 75.299 25.379)"><rect stroke="#666" stroke-width="4" x="2" y="2" width="76" height="26" rx="5"/><use fill="#FFF" xlink:href="#d"/><path stroke="#666" stroke-width="4" d="M2 5.004v19.992A2.996 2.996 0 0 0 5 28h22c1.657 0 3-1.344 3-3.004V5.004A2.996 2.996 0 0 0 27 2H5C3.343 2 2 3.344 2 5.004z"/><use fill="#FFF" xlink:href="#e"/><rect stroke="#666" stroke-width="4" x="62" y="2" width="16" height="26" rx="5"/><use fill="#FFF" xlink:href="#f"/><rect stroke="#666" stroke-width="4" x="46" y="2" width="16" height="26" rx="5"/><use fill="#FFF" xlink:href="#g"/><rect stroke="#666" stroke-width="4" x="30" y="2" width="16" height="26" rx="5"/></g><g transform="rotate(-90 40 40)"><rect stroke="#666" stroke-width="4" x="2" y="2" width="76" height="26" rx="5"/><use fill="#FFF" xlink:href="#h"/><path stroke="#666" stroke-width="4" d="M2 5.004v19.992A2.996 2.996 0 0 0 5 28h22c1.657 0 3-1.344 3-3.004V5.004A2.996 2.996 0 0 0 27 2H5C3.343 2 2 3.344 2 5.004z"/><use fill="#FFF" xlink:href="#i"/><rect stroke="#666" stroke-width="4" x="62" y="2" width="16" height="26" rx="5"/><use fill="#FFF" xlink:href="#j"/><rect stroke="#666" stroke-width="4" x="46" y="2" width="16" height="26" rx="5"/><use fill="#FFF" xlink:href="#k"/><rect stroke="#666" stroke-width="4" x="30" y="2" width="16" height="26" rx="5"/><circle stroke="#666" stroke-width="4" fill="#FFF" cx="15" cy="15" r="4"/><path d="M65 6a3 3 0 1 1 0-6 3 3 0 0 1 0 6zm5 8a3 3 0 1 1 0-6 3 3 0 0 1 0 6zm-5 8a3 3 0 1 1 0-6 3 3 0 0 1 0 6zm5 8a3 3 0 1 1 0-6 3 3 0 0 1 0 6zm5-24a3 3 0 1 1 0-6 3 3 0 0 1 0 6zm0 16a3 3 0 1 1 0-6 3 3 0 0 1 0 6z" fill="#666"/></g><path fill="url(#l)" d="M82 41l30 52H52z"/></g></svg>