<svg xmlns="http://www.w3.org/2000/svg" xmlns:xlink="http://www.w3.org/1999/xlink" width="15" height="24" viewBox="0 0 15 24"><defs><path id="rjjea" d="M728 543c-1.1 0-2 .92-2 2.05 0 .88.56 1.63 1.33 1.92V554h1.34v-7.03a2.04 2.04 0 0 0 1.33-1.92c0-1.13-.9-2.05-2-2.05z"/><path id="rjjeb" d="M727 545a1 1 0 1 1 2 0 1 1 0 0 1-2 0z"/><path id="rjjec" d="M739 543c-1.1 0-2 .92-2 2.05 0 .88.56 1.63 1.33 1.92V554h1.34v-7.03a2.04 2.04 0 0 0 1.33-1.92c0-1.13-.9-2.05-2-2.05z"/><path id="rjjed" d="M733.5 536a2.47 2.47 0 0 0-2.5 2.43v19.14a2.47 2.47 0 0 0 2.5 2.43c1.38 0 2.5-1.09 2.5-2.43v-19.14a2.47 2.47 0 0 0-2.5-2.43z"/><path id="rjjee" d="M732.43 549v-11.03h2.1V549z"/><path id="rjjef" d="M738 545a1 1 0 1 1 2 0 1 1 0 0 1-2 0z"/></defs><g><g transform="rotate(-180 370.5 280)"><g><use fill="#4d80ba" xlink:href="#rjjea"/></g><g><use fill="#fff" xlink:href="#rjjeb"/></g><g><use fill="#4d80ba" xlink:href="#rjjec"/></g><g><use fill="#fff" xlink:href="#rjjed"/></g><g><use fill="#4d80ba" xlink:href="#rjjee"/></g><g><use fill="#fff" xlink:href="#rjjef"/></g></g></g></svg>