<svg xmlns="http://www.w3.org/2000/svg" xmlns:xlink="http://www.w3.org/1999/xlink" width="19" height="24" viewBox="0 0 19 24"><defs><path id="hk0aa" d="M1087.9 557.08a2.36 2.36 0 0 0 1.1-1.98c0-.8-.41-1.54-1.1-1.98a.74.74 0 0 0-1 .2.69.69 0 0 0 .2.96c.29.19.45.49.45.82 0 .33-.16.63-.45.82a2.36 2.36 0 0 0-1.1 1.98c0 .8.41 1.54 1.1 1.98.34.22.78.13 1-.2a.69.69 0 0 0-.2-.96.96.96 0 0 1-.45-.82c0-.33.16-.63.45-.82z"/><path id="hk0ab" d="M1087.9 540.08a2.36 2.36 0 0 0 1.1-1.98c0-.8-.41-1.54-1.1-1.98a.74.74 0 0 0-1 .2.69.69 0 0 0 .2.96c.29.19.45.49.45.82 0 .33-.16.63-.45.82a2.36 2.36 0 0 0-1.1 1.98c0 .8.41 1.54 1.1 1.98.34.22.78.13 1-.2a.69.69 0 0 0-.2-.96.96.96 0 0 1-.45-.82c0-.33.16-.63.45-.82z"/><path id="hk0ac" d="M1082.9 557.08a2.36 2.36 0 0 0 1.1-1.98c0-.8-.41-1.54-1.1-1.98a.74.74 0 0 0-1 .2.69.69 0 0 0 .2.96c.29.19.45.49.45.82 0 .33-.16.63-.45.82a2.36 2.36 0 0 0-1.1 1.98c0 .8.41 1.54 1.1 1.98.34.22.78.13 1-.2a.69.69 0 0 0-.2-.96.96.96 0 0 1-.45-.82c0-.33.16-.63.45-.82z"/><path id="hk0ad" d="M1082.9 540.08a2.36 2.36 0 0 0 1.1-1.98c0-.8-.41-1.54-1.1-1.98a.74.74 0 0 0-1 .2.69.69 0 0 0 .2.96c.29.19.45.49.45.82 0 .33-.16.63-.45.82a2.36 2.36 0 0 0-1.1 1.98c0 .8.41 1.54 1.1 1.98.34.22.78.13 1-.2a.69.69 0 0 0-.2-.96.96.96 0 0 1-.45-.82c0-.33.16-.63.45-.82z"/><path id="hk0ae" d="M1083.1 548.08a2.36 2.36 0 0 1-1.1-1.98c0-.8.41-1.54 1.1-1.98a.74.74 0 0 1 1 .2c.22.31.13.75-.2.96a.96.96 0 0 0-.45.82c0 .33.16.63.45.82.69.44 1.1 1.18 1.1 1.98s-.41 1.54-1.1 1.98a.74.74 0 0 1-1-.2.69.69 0 0 1 .2-.96.96.96 0 0 0 .45-.82.96.96 0 0 0-.45-.82z"/><path id="hk0af" d="M1092.9 557.08a2.36 2.36 0 0 0 1.1-1.98c0-.8-.41-1.54-1.1-1.98a.74.74 0 0 0-1 .2.69.69 0 0 0 .2.96c.29.19.45.49.45.82 0 .33-.16.63-.45.82a2.36 2.36 0 0 0-1.1 1.98c0 .8.41 1.54 1.1 1.98.34.22.78.13 1-.2a.69.69 0 0 0-.2-.96.96.96 0 0 1-.45-.82c0-.33.16-.63.45-.82z"/><path id="hk0ag" d="M1092.9 540.08a2.36 2.36 0 0 0 1.1-1.98c0-.8-.41-1.54-1.1-1.98a.74.74 0 0 0-1 .2.69.69 0 0 0 .2.96c.29.19.45.49.45.82 0 .33-.16.63-.45.82a2.36 2.36 0 0 0-1.1 1.98c0 .8.41 1.54 1.1 1.98.34.22.78.13 1-.2a.69.69 0 0 0-.2-.96.96.96 0 0 1-.45-.82c0-.33.16-.63.45-.82z"/><path id="hk0ah" d="M1088.1 549.08a2.36 2.36 0 0 1-1.1-1.98c0-.8.41-1.54 1.1-1.98a.74.74 0 0 1 1 .2c.22.31.13.75-.2.96a.96.96 0 0 0-.45.82c0 .33.16.63.45.82.69.44 1.1 1.18 1.1 1.98s-.41 1.54-1.1 1.98a.74.74 0 0 1-1-.2.69.69 0 0 1 .2-.96.96.96 0 0 0 .45-.82.96.96 0 0 0-.45-.82z"/><path id="hk0ai" d="M1097.9 557.08a2.36 2.36 0 0 0 1.1-1.98c0-.8-.41-1.54-1.1-1.98a.74.74 0 0 0-1 .2.69.69 0 0 0 .2.96c.29.19.45.49.45.82 0 .33-.16.63-.45.82a2.36 2.36 0 0 0-1.1 1.98c0 .8.41 1.54 1.1 1.98.34.22.78.13 1-.2a.69.69 0 0 0-.2-.96.96.96 0 0 1-.45-.82c0-.33.16-.63.45-.82z"/><path id="hk0aj" d="M1097.9 540.08a2.36 2.36 0 0 0 1.1-1.98c0-.8-.41-1.54-1.1-1.98a.74.74 0 0 0-1 .2.69.69 0 0 0 .2.96c.29.19.45.49.45.82 0 .33-.16.63-.45.82a2.36 2.36 0 0 0-1.1 1.98c0 .8.41 1.54 1.1 1.98.34.22.78.13 1-.2a.69.69 0 0 0-.2-.96.96.96 0 0 1-.45-.82c0-.33.16-.63.45-.82z"/><path id="hk0ak" d="M1093.1 548.08a2.36 2.36 0 0 1-1.1-1.98c0-.8.41-1.54 1.1-1.98a.74.74 0 0 1 1 .2c.22.31.13.75-.2.96a.96.96 0 0 0-.45.82c0 .33.16.63.45.82.69.44 1.1 1.18 1.1 1.98s-.41 1.54-1.1 1.98a.74.74 0 0 1-1-.2.69.69 0 0 1 .2-.96.96.96 0 0 0 .45-.82.96.96 0 0 0-.45-.82z"/><path id="hk0al" d="M1098.1 549.08a2.36 2.36 0 0 1-1.1-1.98c0-.8.41-1.54 1.1-1.98a.74.74 0 0 1 1 .2c.22.31.13.75-.2.96a.96.96 0 0 0-.45.82c0 .33.16.63.45.82.69.44 1.1 1.18 1.1 1.98s-.41 1.54-1.1 1.98a.74.74 0 0 1-1-.2.69.69 0 0 1 .2-.96.96.96 0 0 0 .45-.82.96.96 0 0 0-.45-.82z"/></defs><g><g transform="translate(-1081 -536)"><g><use fill="#fff" xlink:href="#hk0aa"/></g><g><use fill="#fff" xlink:href="#hk0ab"/></g><g><use fill="#4d80ba" xlink:href="#hk0ac"/></g><g><use fill="#4d80ba" xlink:href="#hk0ad"/></g><g><use fill="#fff" xlink:href="#hk0ae"/></g><g><use fill="#4d80ba" xlink:href="#hk0af"/></g><g><use fill="#4d80ba" xlink:href="#hk0ag"/></g><g><use fill="#4d80ba" xlink:href="#hk0ah"/></g><g><use fill="#fff" xlink:href="#hk0ai"/></g><g><use fill="#fff" xlink:href="#hk0aj"/></g><g><use fill="#fff" xlink:href="#hk0ak"/></g><g><use fill="#4d80ba" xlink:href="#hk0al"/></g></g></g></svg>