<svg xmlns="http://www.w3.org/2000/svg" xmlns:xlink="http://www.w3.org/1999/xlink" width="62" height="63" viewBox="0 0 62 63"><defs><path id="lv98a" d="M609 3519a7 7 0 0 1 7-7h48a7 7 0 0 1 7 7v49a7 7 0 0 1-7 7h-48a7 7 0 0 1-7-7z"/><path id="lv98d" d="M637.17 3557.42a3.66 3.66 0 0 0 1.83-3.12c0-1.25-.68-2.42-1.83-3.12-.56-.33-1.3-.2-1.67.31-.37.5-.22 1.19.33 1.53.48.29.75.75.75 1.28s-.27 1-.75 1.28a3.66 3.66 0 0 0-1.83 3.12c0 1.25.68 2.42 1.83 3.12.56.34 1.31.19 1.67-.31.37-.5.23-1.19-.33-1.53-.48-.29-.75-.75-.75-1.28s.27-1 .75-1.28z"/><path id="lv98e" d="M637.17 3531.42a3.66 3.66 0 0 0 1.83-3.12c0-1.25-.68-2.42-1.83-3.12-.56-.33-1.3-.2-1.67.31-.37.5-.22 1.19.33 1.53.48.29.75.75.75 1.28s-.27 1-.75 1.28a3.66 3.66 0 0 0-1.83 3.12c0 1.25.68 2.42 1.83 3.12.56.34 1.31.19 1.67-.31.37-.5.23-1.19-.33-1.53-.48-.29-.75-.75-.75-1.28s.27-1 .75-1.28z"/><path id="lv98f" d="M629.17 3557.42a3.66 3.66 0 0 0 1.83-3.12c0-1.25-.68-2.42-1.83-3.12-.56-.33-1.3-.2-1.67.31-.37.5-.22 1.19.33 1.53.48.29.75.75.75 1.28s-.27 1-.75 1.28a3.66 3.66 0 0 0-1.83 3.12c0 1.25.68 2.42 1.83 3.12.56.34 1.31.19 1.67-.31.37-.5.23-1.19-.33-1.53-.48-.29-.75-.75-.75-1.28s.27-1 .75-1.28z"/><path id="lv98g" d="M629.17 3531.42a3.66 3.66 0 0 0 1.83-3.12c0-1.25-.68-2.42-1.83-3.12-.56-.33-1.3-.2-1.67.31-.37.5-.22 1.19.33 1.53.48.29.75.75.75 1.28s-.27 1-.75 1.28a3.66 3.66 0 0 0-1.83 3.12c0 1.25.68 2.42 1.83 3.12.56.34 1.31.19 1.67-.31.37-.5.23-1.19-.33-1.53-.48-.29-.75-.75-.75-1.28s.27-1 .75-1.28z"/><path id="lv98h" d="M629.83 3544.42a3.66 3.66 0 0 1-1.83-3.12c0-1.25.68-2.42 1.83-3.12.56-.33 1.3-.2 1.67.31.37.5.22 1.19-.33 1.53-.48.29-.75.75-.75 1.28s.27 1 .75 1.28a3.66 3.66 0 0 1 1.83 3.12c0 1.25-.68 2.42-1.83 3.12-.56.34-1.31.19-1.67-.31-.37-.5-.23-1.19.33-1.53.48-.29.75-.75.75-1.28s-.27-1-.75-1.28z"/><path id="lv98i" d="M644.17 3557.42a3.66 3.66 0 0 0 1.83-3.12c0-1.25-.68-2.42-1.83-3.12-.56-.33-1.3-.2-1.67.31-.37.5-.22 1.19.33 1.53.48.29.75.75.75 1.28s-.27 1-.75 1.28a3.66 3.66 0 0 0-1.83 3.12c0 1.25.68 2.42 1.83 3.12.56.34 1.31.19 1.67-.31.37-.5.23-1.19-.33-1.53-.48-.29-.75-.75-.75-1.28s.27-1 .75-1.28z"/><path id="lv98j" d="M644.17 3531.42a3.66 3.66 0 0 0 1.83-3.12c0-1.25-.68-2.42-1.83-3.12-.56-.33-1.3-.2-1.67.31-.37.5-.22 1.19.33 1.53.48.29.75.75.75 1.28s-.27 1-.75 1.28a3.66 3.66 0 0 0-1.83 3.12c0 1.25.68 2.42 1.83 3.12.56.34 1.31.19 1.67-.31.37-.5.23-1.19-.33-1.53-.48-.29-.75-.75-.75-1.28s.27-1 .75-1.28z"/><path id="lv98k" d="M636.83 3545.42a3.66 3.66 0 0 1-1.83-3.12c0-1.25.68-2.42 1.83-3.12.56-.33 1.3-.2 1.67.31.37.5.22 1.19-.33 1.53-.48.29-.75.75-.75 1.28s.27 1 .75 1.28a3.66 3.66 0 0 1 1.83 3.12c0 1.25-.68 2.42-1.83 3.12-.56.34-1.31.19-1.67-.31-.37-.5-.23-1.19.33-1.53.48-.29.75-.75.75-1.28s-.27-1-.75-1.28z"/><path id="lv98l" d="M653.17 3557.42a3.66 3.66 0 0 0 1.83-3.12c0-1.25-.68-2.42-1.83-3.12-.56-.33-1.3-.2-1.67.31-.37.5-.22 1.19.33 1.53.48.29.75.75.75 1.28s-.27 1-.75 1.28a3.66 3.66 0 0 0-1.83 3.12c0 1.25.68 2.42 1.83 3.12.56.34 1.31.19 1.67-.31.37-.5.23-1.19-.33-1.53-.48-.29-.75-.75-.75-1.28s.27-1 .75-1.28z"/><path id="lv98m" d="M653.17 3531.42a3.66 3.66 0 0 0 1.83-3.12c0-1.25-.68-2.42-1.83-3.12-.56-.33-1.3-.2-1.67.31-.37.5-.22 1.19.33 1.53.48.29.75.75.75 1.28s-.27 1-.75 1.28a3.66 3.66 0 0 0-1.83 3.12c0 1.25.68 2.42 1.83 3.12.56.34 1.31.19 1.67-.31.37-.5.23-1.19-.33-1.53-.48-.29-.75-.75-.75-1.28s.27-1 .75-1.28z"/><path id="lv98n" d="M643.83 3544.42a3.66 3.66 0 0 1-1.83-3.12c0-1.25.68-2.42 1.83-3.12.56-.33 1.3-.2 1.67.31.37.5.22 1.19-.33 1.53-.48.29-.75.75-.75 1.28s.27 1 .75 1.28a3.66 3.66 0 0 1 1.83 3.12c0 1.25-.68 2.42-1.83 3.12-.56.34-1.31.19-1.67-.31-.37-.5-.23-1.19.33-1.53.48-.29.75-.75.75-1.28s-.27-1-.75-1.28z"/><path id="lv98o" d="M651.83 3545.42a3.66 3.66 0 0 1-1.83-3.12c0-1.25.68-2.42 1.83-3.12.56-.33 1.3-.2 1.67.31.37.5.22 1.19-.33 1.53-.48.29-.75.75-.75 1.28s.27 1 .75 1.28a3.66 3.66 0 0 1 1.83 3.12c0 1.25-.68 2.42-1.83 3.12-.56.34-1.31.19-1.67-.31-.37-.5-.23-1.19.33-1.53.48-.29.75-.75.75-1.28s-.27-1-.75-1.28z"/><mask id="lv98c" width="2" height="2" x="-1" y="-1"><path fill="#fff" d="M609 3512h62v63h-62z"/><use xlink:href="#lv98a"/></mask><filter id="lv98b" width="106" height="109" x="587" y="3502" filterUnits="userSpaceOnUse"><feOffset dy="2" in="SourceGraphic" result="FeOffset1554Out"/><feGaussianBlur in="FeOffset1554Out" result="FeGaussianBlur1555Out" stdDeviation="4.8 4.8"/></filter></defs><g><g transform="translate(-609 -3512)"><g><g filter="url(#lv98b)"><use fill="none" stroke-opacity=".06" stroke-width="0" mask="url(&quot;#lv98c&quot;)" xlink:href="#lv98a"/><use fill-opacity=".06" xlink:href="#lv98a"/></g><use fill="#fff" xlink:href="#lv98a"/></g><g><g><use fill="#2b2a29" xlink:href="#lv98d"/></g><g><use fill="#2b2a29" xlink:href="#lv98e"/></g><g><use fill="#4d80ba" xlink:href="#lv98f"/></g><g><use fill="#4d80ba" xlink:href="#lv98g"/></g><g><use fill="#2b2a29" xlink:href="#lv98h"/></g><g><use fill="#4d80ba" xlink:href="#lv98i"/></g><g><use fill="#4d80ba" xlink:href="#lv98j"/></g><g><use fill="#4d80ba" xlink:href="#lv98k"/></g><g><use fill="#2b2a29" xlink:href="#lv98l"/></g><g><use fill="#2b2a29" xlink:href="#lv98m"/></g><g><use fill="#2b2a29" xlink:href="#lv98n"/></g><g><use fill="#4d80ba" xlink:href="#lv98o"/></g></g></g></g></svg>