<svg xmlns="http://www.w3.org/2000/svg" xmlns:xlink="http://www.w3.org/1999/xlink" width="96" height="98"><defs><path id="a" d="M372 808a8 8 0 0 1 8-8h64a8 8 0 0 1 8 8v64a8 8 0 0 1-8 8h-64a8 8 0 0 1-8-8z"/><path id="c" d="M384 830a3 3 0 1 1 6 0 3 3 0 0 1-6 0zm-10 0a3 3 0 1 1 6 0 3 3 0 0 1-6 0zm15 8a3 3 0 1 1 6 0 3 3 0 0 1-6 0zm-10 0a3 3 0 1 1 6 0 3 3 0 0 1-6 0zm5 8a3 3 0 1 1 6 0 3 3 0 0 1-6 0zm-10 0a3 3 0 1 1 6 0 3 3 0 0 1-6 0zm15 8a3 3 0 1 1 6 0 3 3 0 0 1-6 0zm-10 0a3 3 0 1 1 6 0 3 3 0 0 1-6 0zm5 8a3 3 0 1 1 6 0 3 3 0 0 1-6 0zm-10 0a3 3 0 1 1 6 0 3 3 0 0 1-6 0zm15 8a3 3 0 1 1 6 0 3 3 0 0 1-6 0zm-10 0a3 3 0 1 1 6 0 3 3 0 0 1-6 0z"/><path id="d" d="M372 826v-4h80v4z"/><path id="e" d="M392 876v-50h4v50z"/><path id="f" d="M436 813a3 3 0 1 1 6 0 3 3 0 0 1-6 0zm-10 0a3 3 0 1 1 6 0 3 3 0 0 1-6 0zm-10 0a3 3 0 1 1 6 0 3 3 0 0 1-6 0z"/><path id="h" d="M416 854a8 8 0 0 1 8-8h36a8 8 0 0 1 8 8v36a8 8 0 0 1-8 8h-36a8 8 0 0 1-8-8z"/><clipPath id="b"><use fill="#fff" xlink:href="#a"/></clipPath><linearGradient id="g" x1="416" x2="467.73" y1="846" y2="897.73" gradientUnits="userSpaceOnUse"><stop offset="0" stop-color="#4d80ba"/><stop offset="1" stop-color="#7de1ff" stop-opacity="0"/></linearGradient></defs><g opacity=".9" transform="translate(-372 -800)"><use fill="#fff" fill-opacity="0" stroke="#666" stroke-miterlimit="50" stroke-width="8" clip-path="url(&quot;#b&quot;)" xlink:href="#a" opacity=".9"/><use fill="#666" xlink:href="#c" opacity=".9"/><use fill="#666" xlink:href="#d" opacity=".9"/><use fill="#666" xlink:href="#e" opacity=".9"/><use fill="#666" xlink:href="#f" opacity=".9"/><use fill="url(#g)" xlink:href="#h" opacity=".9"/></g></svg>